Shaun the Sheep Season 2 Eps 1-20

General
20Shaun.The.Sheep.S02E01.Abracadabra.Pdtv.Xvid-HamPL.avi
Format                         : AVI
Format/Info                    : Audio Video Interleave
File size                      : 18.5 MiB
Duration                       : 6mn 58s
Overall bit rate               : 370 Kbps
Writing application            : VirtualDubMod 1.5.4.1 (build 2178/release)
Writing library                : VirtualDub build 29896/release

Video
ID                             : 0
Format                         : MPEG-4 Visual
Format profile                 : Advanced Simple@L5
Format settings, BVOP          : 2
Format settings, QPel          : No
Format settings, GMC           : No warppoints
Format settings, Matrix        : Default (H.263)
Muxing mode                    : Packed bitstream
Codec ID                       : XVID
Codec ID/Hint                  : XviD
Duration                       : 6mn 58s
Bit rate                       : 265 Kbps
Width                          : 608 pixels
Height                         : 352 pixels
Display aspect ratio           : 1.727
Frame rate                     : 25.000 fps
Color space                    : YUV
Chroma subsampling             : 4:2:0
Bit depth                      : 8 bits
Scan type                      : Progressive
Compression mode               : Lossy
Bits/(Pixel*Frame)             : 0.049
Stream size                    : 13.2 MiB (71%)
Writing library                : XviD 1.2.0.dev47 (UTC 2006-11-01)

Audio
ID                             : 1
Format                         : AC-3
Format/Info                    : Audio Coding 3
Mode extension                 : CM (complete main)
Format settings, Endianness    : Big
Codec ID                       : 2000
Duration                       : 6mn 58s
Bit rate mode                  : Constant
Bit rate                       : 96.0 Kbps
Channel(s)                     : 2 channels
Channel positions              : Front: L R
Sampling rate                  : 48.0 KHz
Bit depth                      : 16 bits
Compression mode               : Lossy
Stream size                    : 4.79 MiB (26%)
Alignment                      : Aligned on interleaves
Interleave, duration           : 40 ms (1.00 video frame)
Interleave, preload duration   : 512 ms

